<svg width="80" height="81" viewBox="0 0 80 81" fill="none" xmlns="http://www.w3.org/2000/svg">
<g clip-path="url(#clip0_11797_4213)">
<path opacity="0.3" d="M77 34.5C77 48.8594 65.3594 60.5 51 60.5C36.6406 60.5 25 48.8594 25 34.5C25 20.1406 36.6406 8.5 51 8.5C65.3594 8.5 77 20.1406 77 34.5Z" fill="#DDDDDD"/>
<path d="M69.1971 10.1347C76.1442 14.6565 78.1121 23.9184 73.5916 30.8226C71.0479 34.7085 66.9923 37.0209 62.6938 37.495L57.283 41.5L58.7152 37.4004C56.6763 37.0821 54.667 36.341 52.8249 35.1434C45.8761 30.6234 43.9099 21.3597 48.4304 14.4556C52.9543 7.54788 62.25 5.61302 69.1971 10.1347Z" fill="white"/>
<path fill-rule="evenodd" clip-rule="evenodd" d="M62.6937 37.4951C66.9922 37.021 71.0478 34.7086 73.5915 30.8227C78.112 23.9185 76.1441 14.6566 69.197 10.1349C62.2499 5.61313 52.9542 7.54799 48.4303 14.4557C43.9098 21.3599 45.876 30.6235 52.8248 35.1435C53.9528 35.8769 55.1435 36.439 56.3653 36.8377C57.1388 37.0902 57.9247 37.2771 58.7151 37.4005L57.2829 41.5001L62.6937 37.4951ZM55.575 39.1001C54.1718 38.6383 52.8046 37.9907 51.51 37.149C43.4546 31.9092 41.1672 21.1639 46.4157 13.1477C51.6683 5.12735 62.4571 2.88672 70.5129 8.13005C78.5653 13.3712 80.855 24.1137 75.6062 32.1305C72.785 36.4403 68.3593 39.0819 63.6263 39.7889L58.7175 43.4223C57.87 44.0495 56.7109 44.053 55.8597 43.4309C55.0086 42.8087 54.6645 41.7064 55.0114 40.7133L55.575 39.1001Z" fill="#BBBBBB"/>
<path d="M63.3278 22.5001C63.3278 23.6047 62.4323 24.5001 61.3278 24.5001C60.2232 24.5001 59.3278 23.6047 59.3278 22.5001C59.3278 21.3956 60.2232 20.5001 61.3278 20.5001C62.4323 20.5001 63.3278 21.3956 63.3278 22.5001Z" fill="#BBBBBB"/>
<path d="M56.3278 22.5001C56.3278 23.6047 55.4324 24.5001 54.3278 24.5001C53.2232 24.5001 52.3278 23.6047 52.3278 22.5001C52.3278 21.3955 53.2232 20.5001 54.3278 20.5001C55.4324 20.5001 56.3278 21.3955 56.3278 22.5001Z" fill="#BBBBBB"/>
<path d="M70.3278 22.5001C70.3278 23.6047 69.4323 24.5001 68.3278 24.5001C67.2232 24.5001 66.3278 23.6047 66.3278 22.5001C66.3278 21.3956 67.2232 20.5001 68.3278 20.5001C69.4323 20.5001 70.3278 21.3956 70.3278 22.5001Z" fill="#BBBBBB"/>
<path d="M10.1175 27.3709C8.81407 28.0661 7.99988 29.4231 7.99988 30.9004V59.1004C7.99988 60.5776 8.81407 61.9346 10.1175 62.6298L35.1175 75.9964C36.2939 76.6238 37.7057 76.6238 38.8822 75.9964L49.8822 70.1297C51.1856 69.4345 51.9998 68.0775 51.9998 66.6003V52.4003C51.9998 50.923 51.1856 49.5661 49.8822 48.8709L37.9999 42.5577V30.9004C37.9999 29.4231 37.1857 28.0661 35.8822 27.3709L24.8822 21.5043C23.7058 20.8768 22.294 20.8768 21.1175 21.5043L10.1175 27.3709Z" fill="#DDDDDD"/>
<path fill-rule="evenodd" clip-rule="evenodd" d="M49.9998 66.5999V52.3999C49.9998 51.6612 49.5927 50.9828 48.9409 50.6352L37.9409 44.7685C37.3527 44.4548 36.6468 44.4548 36.0586 44.7685L25.0586 50.6352C24.4069 50.9828 23.9998 51.6612 23.9998 52.3999V67.7999L36.0586 74.2312C36.6468 74.545 37.3527 74.545 37.9409 74.2312L48.9409 68.3646C49.5927 68.017 49.9998 67.3385 49.9998 66.5999ZM21.9998 68.9999L35.1174 75.996C36.2939 76.6234 37.7056 76.6234 38.8821 75.996L49.8821 70.1293C51.1856 69.4341 51.9998 68.0771 51.9998 66.5999V52.3999C51.9998 50.9226 51.1856 49.5656 49.8821 48.8705L38.8821 43.0038C37.7056 42.3763 36.2939 42.3763 35.1174 43.0038L24.1174 48.8705C22.8139 49.5656 21.9998 50.9226 21.9998 52.3999V68.9999Z" fill="#BBBBBB"/>
<path d="M9.49976 60.5V30.5L22.4998 37V67.5L9.49976 60.5Z" fill="white"/>
<path d="M22.9998 67.9999V51.4999L36.9998 58.4999V75.4999L22.9998 67.9999Z" fill="white"/>
<path fill-rule="evenodd" clip-rule="evenodd" d="M21.7998 37.7293L8.94744 31.0651L10.0522 28.9345L22.9998 35.6481L35.9474 28.9345L37.0522 31.0651L24.1998 37.7293V67.9998H21.7998V37.7293Z" fill="#BBBBBB"/>
<path fill-rule="evenodd" clip-rule="evenodd" d="M49.5998 66.5998V52.3998C49.5998 51.8089 49.2741 51.2661 48.7528 50.988L37.9999 45.2532L37.7528 45.1214C37.2822 44.8704 36.7175 44.8704 36.2469 45.1214L35.5999 45.4664L25.2469 50.988C24.7255 51.2661 24.3998 51.8089 24.3998 52.3998V66.0332V67.5598L25.5187 68.1565L36.2469 73.8782C36.7175 74.1292 37.2822 74.1292 37.7528 73.8782L48.7528 68.0116C49.2741 67.7335 49.5998 67.1907 49.5998 66.5998ZM21.9998 68.9998L35.1175 75.9959C36.2939 76.6233 37.7057 76.6233 38.8822 75.9959L49.8822 70.1292C51.1856 69.434 51.9998 68.0771 51.9998 66.5998V52.3998C51.9998 50.9226 51.1856 49.5656 49.8822 48.8704L38.8822 43.0037C37.7057 42.3763 36.2939 42.3763 35.1175 43.0037L24.1175 48.8704C22.814 49.5656 21.9998 50.9226 21.9998 52.3998V68.9998Z" fill="#BBBBBB"/>
<path fill-rule="evenodd" clip-rule="evenodd" d="M35.8001 59.2293L35.5997 59.1254L22.9477 52.5651L24.0524 50.4345L35.5999 56.422L37.0001 57.148L37.9999 56.6296L49.9477 50.4345L51.0524 52.5651L38.2001 59.2293V75.9998H35.8001V62.6731V59.2293Z" fill="#BBBBBB"/>
<path fill-rule="evenodd" clip-rule="evenodd" d="M26.7315 60.9536C27.0331 60.3635 27.756 60.1296 28.3461 60.4312L31.6946 62.1427L32.8461 62.7313C33.2934 62.9599 33.5361 63.4305 33.4959 63.902C33.4831 64.0525 33.4415 64.2031 33.3685 64.3459C33.0669 64.936 32.344 65.1699 31.7539 64.8683L31.7182 64.8501L29.114 63.519L27.2539 62.5683C26.6637 62.2667 26.4298 61.5438 26.7315 60.9536Z" fill="#BBBBBB"/>
<path fill-rule="evenodd" clip-rule="evenodd" d="M12.7315 39.4537C13.0331 38.8636 13.7561 38.6297 14.3462 38.9313L18.8462 41.2313C19.4363 41.5329 19.6702 42.2558 19.3686 42.846C19.0669 43.4361 18.344 43.67 17.7539 43.3684L13.2539 41.0684C12.6638 40.7667 12.4299 40.0438 12.7315 39.4537Z" fill="#BBBBBB"/>
<path fill-rule="evenodd" clip-rule="evenodd" d="M12.7315 45.9536C13.0331 45.3635 13.7561 45.1296 14.3462 45.4312L18.8462 47.7312C19.4363 48.0329 19.6702 48.7558 19.3686 49.3459C19.0669 49.936 18.344 50.1699 17.7539 49.8683L13.2539 47.5683C12.6638 47.2667 12.4299 46.5438 12.7315 45.9536Z" fill="#BBBBBB"/>
<path fill-rule="evenodd" clip-rule="evenodd" d="M35.5999 56.422V59.0999L35.5997 59.1254L35.8001 59.2293V62.6731L35.8822 62.6293C37.1857 61.9341 37.9999 60.5771 37.9999 59.0999V56.6296L37.0001 57.148L35.5999 56.422ZM35.5999 45.4664L36.2469 45.1214C36.7175 44.8704 37.2822 44.8704 37.7528 45.1214L37.9999 45.2532V30.8999C37.9999 29.4226 37.1857 28.0656 35.8822 27.3705L24.8822 21.5038C23.7058 20.8763 22.294 20.8763 21.1175 21.5038L10.1175 27.3705C8.81407 28.0656 7.99988 29.4226 7.99988 30.8999V59.0999C7.99988 60.5771 8.81407 61.9341 10.1175 62.6293L22.9999 69.4999L25.5187 68.1565L24.3998 67.5598V66.0332L22.9999 66.7799L11.2469 60.5116C10.7256 60.2336 10.3999 59.6908 10.3999 59.0999V30.8999C10.3999 30.309 10.7256 29.7662 11.2469 29.4881L22.2469 23.6214C22.7175 23.3705 23.2822 23.3705 23.7528 23.6214L34.7528 29.4881C35.2742 29.7662 35.5999 30.309 35.5999 30.8999V45.4664ZM29.114 63.519L31.6946 62.1427L32.8461 62.7313C33.2934 62.9599 33.5361 63.4305 33.4959 63.902L31.7182 64.8501L29.114 63.519Z" fill="#BBBBBB"/>
</g>
<defs>
<clipPath id="clip0_11797_4213">
<rect width="80" height="80" fill="white" transform="translate(0 0.5)"/>
</clipPath>
</defs>
</svg>
